HIERARCHY
ROOT joint_Root
{
	OFFSET 0.0 0.0 0.0
	CHANNELS 6 Xposition Yposition Zposition Zrotation Xrotation Yrotation 
	JOINT Hips
	{
		OFFSET -0.726466 93.3139 -2.00062
		CHANNELS 6 Xposition Yposition Zposition Zrotation Xrotation Yrotation 
		JOINT Spine
		{
			OFFSET 15.7357 0.0 0.0
			CHANNELS 6 Xposition Yposition Zposition Zrotation Xrotation Yrotation 
			JOINT Chest
			{
				OFFSET 8.98455 -0.406207 0.0
				CHANNELS 6 Xposition Yposition Zposition Zrotation Xrotation Yrotation 
				JOINT Neck
				{
					OFFSET 16.3773 0.0 0.0
					CHANNELS 6 Xposition Yposition Zposition Zrotation Xrotation Yrotation 
					JOINT Head
					{
						OFFSET 6.45672 0.0 0.0
						CHANNELS 6 Xposition Yposition Zposition Zrotation Xrotation Yrotation 
						End Site
						{
							OFFSET 0.0 0.0 0.0
						}
					}
				}
				JOINT Shoulder_L
				{
					OFFSET 12.9942 -0.242716 4.98039
					CHANNELS 6 Xposition Yposition Zposition Zrotation Xrotation Yrotation 
					JOINT UpperArm_L
					{
						OFFSET 5.34809 0.0 0.0
						CHANNELS 6 Xposition Yposition Zposition Zrotation Xrotation Yrotation 
						JOINT LowerArm_L
						{
							OFFSET 24.3286 1.87007e-05 0.0
							CHANNELS 6 Xposition Yposition Zposition Zrotation Xrotation Yrotation 
							JOINT Hand_L
							{
								OFFSET 22.2916 0.0 0.0
								CHANNELS 6 Xposition Yposition Zposition Zrotation Xrotation Yrotation 
								End Site
								{
									OFFSET 0.0 0.0 0.0
								}
							}
						}
					}
				}
				JOINT Shoulder_R
				{
					OFFSET 12.9945 -0.242716 -4.98039
					CHANNELS 6 Xposition Yposition Zposition Zrotation Xrotation Yrotation 
					JOINT UpperArm_R
					{
						OFFSET -5.34813 0.0 0.0
						CHANNELS 6 Xposition Yposition Zposition Zrotation Xrotation Yrotation 
						JOINT LowerArm_R
						{
							OFFSET -24.3289 0.000322201 0.0
							CHANNELS 6 Xposition Yposition Zposition Zrotation Xrotation Yrotation 
							JOINT Hand_R
							{
								OFFSET -22.2915 -0.000108084 0.0
								CHANNELS 6 Xposition Yposition Zposition Zrotation Xrotation Yrotation 
								End Site
								{
									OFFSET 0.0 0.0 0.0
								}
							}
						}
					}
				}
			}
		}
		JOINT UpperLeg_L
		{
			OFFSET -2.19248 -6.46944 0.0
			CHANNELS 6 Xposition Yposition Zposition Zrotation Xrotation Yrotation 
			JOINT LowerLeg_L
			{
				OFFSET 39.0811 0.0 -1.23785e-05
				CHANNELS 6 Xposition Yposition Zposition Zrotation Xrotation Yrotation 
				JOINT Foot_L
				{
					OFFSET 40.9854 0.0 -1.26872e-05
					CHANNELS 6 Xposition Yposition Zposition Zrotation Xrotation Yrotation 
					JOINT Toes_L
					{
						OFFSET 11.7543 0.0 0.0
						CHANNELS 6 Xposition Yposition Zposition Zrotation Xrotation Yrotation 
						End Site
						{
							OFFSET 0.0 0.0 0.0
						}
					}
				}
			}
		}
		JOINT UpperLeg_R
		{
			OFFSET -2.19251 6.46944 0.0
			CHANNELS 6 Xposition Yposition Zposition Zrotation Xrotation Yrotation 
			JOINT LowerLeg_R
			{
				OFFSET -39.0811 -0.00228153 -0.0401928
				CHANNELS 6 Xposition Yposition Zposition Zrotation Xrotation Yrotation 
				JOINT Foot_R
				{
					OFFSET -40.9854 0.0 0.0
					CHANNELS 6 Xposition Yposition Zposition Zrotation Xrotation Yrotation 
					JOINT Toes_R
					{
						OFFSET -11.7543 0.0 0.0
						CHANNELS 6 Xposition Yposition Zposition Zrotation Xrotation Yrotation 
						End Site
						{
							OFFSET 0.0 0.0 0.0
						}
					}
				}
			}
		}
	}
}
MOTION
Frames:	6
Frame Time:	0.0333333
0.000000 0.000000 0.000000 0.000000 0.000000 -0.000000 -1.645870 88.762000 397.470000 -90.485500 9.325030 167.822000 15.735700 0.000005 -0.000001 108.968000 80.740300 -110.003000 8.984550 -0.406207 -0.000000 9.842130 5.964420 -2.583580 16.377300 -0.000001 -0.000001 3.044940 -0.821569 1.728460 6.456720 -0.000001 -0.000000 -3.246780 -3.820870 -3.071940 12.994200 -0.242716 4.980390 -87.461000 -5.953700 -66.852800 5.348090 -0.000007 -0.000001 -72.528000 23.844000 20.121100 24.328600 0.000019 0.000005 1.213980 1.332960 -42.331400 22.291600 -0.000001 0.000005 -2.557700 5.639730 -14.103100 12.994500 -0.242716 -4.980390 89.757300 0.686443 -70.531000 -5.348130 -0.000001 -0.000004 -41.401600 18.260200 -43.072400 -24.328900 0.000322 -0.000009 3.143540 1.091950 -70.872700 -22.291500 -0.000108 -0.000004 1.348590 5.589900 -10.756200 -2.192480 -6.469440 -0.000000 174.032000 -2.372900 -49.584000 39.081100 -0.000007 -0.000012 0.018032 -0.004563 75.779100 40.985400 -0.000006 -0.000013 8.161150 -10.264100 -62.349700 11.754300 -0.000000 0.000003 -0.008065 -0.088571 -20.183500 -2.192510 6.469440 -0.000001 173.241000 9.337640 176.947000 -39.081100 -0.002282 -0.040193 0.042945 -0.060207 33.367400 -40.985400 0.000008 0.000006 4.952240 4.529760 -56.750000 -11.754300 -0.000006 -0.000006 -0.224331 -0.684068 -46.084800
0.000000 0.000000 0.000000 0.000000 0.000000 -0.000000 -2.101340 91.415400 389.878000 -89.903400 9.159900 167.400000 15.735700 0.000005 -0.000001 110.403000 80.807300 -111.539000 8.984550 -0.406207 -0.000000 9.573750 6.354720 -2.804290 16.377300 -0.000001 -0.000001 3.721050 -0.781370 1.796620 6.456720 -0.000001 -0.000000 -3.860140 -4.132140 -2.751100 12.994200 -0.242716 4.980390 -87.041000 -6.941830 -66.844100 5.348090 -0.000007 -0.000001 -73.269900 21.291000 22.270500 24.328600 0.000019 0.000005 1.275960 1.368350 -43.005600 22.291600 -0.000001 0.000005 -1.792110 5.634760 -13.702000 12.994500 -0.242716 -4.980390 89.930300 0.200545 -70.841800 -5.348130 -0.000001 -0.000004 -42.088000 19.966300 -43.185600 -24.328900 0.000322 -0.000009 3.413170 1.181430 -70.938100 -22.291500 -0.000108 -0.000004 1.512950 5.586060 -10.541700 -2.192480 -6.469440 -0.000000 176.024000 -2.824030 -46.363000 39.081100 -0.000007 -0.000012 0.055747 -0.036720 56.624400 40.985400 -0.000006 -0.000013 6.191110 -4.525450 -64.921300 11.754300 -0.000000 0.000003 -0.006357 -0.074056 -19.591100 -2.192510 6.469440 -0.000001 171.466000 12.212700 -179.231000 -39.081100 -0.002282 -0.040193 0.079678 -0.145613 27.676100 -40.985400 0.000008 0.000006 1.602730 8.810270 -39.004000 -11.754300 -0.000006 -0.000006 -0.171532 -0.595580 -41.906200
0.000000 0.000000 0.000000 0.000000 0.000000 -0.000000 -2.218980 92.355800 381.948000 -88.294700 8.471190 168.288000 15.735700 0.000005 -0.000001 111.153000 80.476200 -111.939000 8.984550 -0.406207 -0.000000 10.098400 6.813810 -2.176210 16.377300 -0.000001 -0.000001 4.163930 -1.043170 1.899170 6.456720 -0.000001 -0.000000 -4.310020 -4.395650 -2.536570 12.994200 -0.242716 4.980390 -86.787000 -7.622230 -67.061000 5.348090 -0.000007 -0.000001 -73.247000 19.351200 22.738300 24.328600 0.000019 0.000005 1.485200 1.558610 -43.627500 22.291600 -0.000001 0.000005 -1.473180 5.624390 -12.926600 12.994500 -0.242716 -4.980390 90.052800 -0.153492 -71.002300 -5.348130 -0.000001 -0.000004 -43.638800 21.676900 -42.059300 -24.328900 0.000322 -0.000009 3.676350 1.305210 -70.488100 -22.291500 -0.000108 -0.000004 2.014610 5.587790 -10.637700 -2.192480 -6.469440 -0.000000 178.791000 -3.822340 -40.937100 39.081100 -0.000007 -0.000012 0.032454 -0.042009 37.686100 40.985400 -0.000006 -0.000013 3.614270 -1.386340 -67.801400 11.754300 -0.000000 0.000003 -0.005624 -0.067387 -19.319000 -2.192510 6.469440 -0.000001 170.751000 12.930400 -175.396000 -39.081100 -0.002282 -0.040193 0.126854 -0.251277 26.181900 -40.985400 0.000008 0.000006 -3.855990 7.769770 -27.804300 -11.754300 -0.000006 -0.000006 -0.025156 -0.194334 -24.524000
0.000000 0.000000 0.000000 0.000000 0.000000 -0.000000 -2.255940 91.906600 373.646000 -86.802200 8.425800 169.513000 15.735700 0.000005 -0.000001 112.526000 80.071800 -113.069000 8.984550 -0.406207 -0.000000 10.679400 7.539860 -1.792390 16.377300 -0.000001 -0.000001 4.043680 -1.206560 2.056580 6.456720 -0.000001 -0.000000 -4.082990 -4.772610 -2.165840 12.994200 -0.242716 4.980390 -86.664600 -7.908760 -67.044800 5.348090 -0.000007 -0.000001 -72.487400 18.442900 21.536800 24.328600 0.000019 0.000005 2.043690 2.100330 -44.234700 22.291600 -0.000001 0.000005 -0.554281 5.617290 -12.436000 12.994500 -0.242716 -4.980390 90.145100 -0.425919 -71.191100 -5.348130 -0.000001 -0.000004 -46.372900 23.273200 -39.453100 -24.328900 0.000322 -0.000009 3.234160 1.211910 -69.488400 -22.291500 -0.000108 -0.000004 2.388060 5.592430 -10.899400 -2.192480 -6.469440 -0.000000 -179.322000 -6.007000 -36.079100 39.081100 -0.000007 -0.000012 0.006552 -0.015358 23.104400 40.985400 -0.000006 -0.000013 1.554560 -1.027130 -69.165400 11.754300 -0.000000 0.000003 -0.006396 -0.074397 -19.604900 -2.192510 6.469440 -0.000001 170.261000 11.670900 -172.372000 -39.081100 -0.002282 -0.040193 0.153804 -0.262626 29.815600 -40.985400 0.000008 0.000006 -4.850100 5.454460 -28.138000 -11.754300 -0.000006 -0.000006 -0.027062 -0.203668 -24.910200
0.000000 0.000000 0.000000 0.000000 0.000000 -0.000000 -2.535200 90.391900 365.231000 -86.244900 8.695640 170.037000 15.735700 0.000005 -0.000001 113.034000 79.942700 -113.605000 8.984550 -0.406207 -0.000000 10.857800 7.798120 -1.885340 16.377300 -0.000001 -0.000001 3.904350 -1.274370 1.920120 6.456720 -0.000001 -0.000000 -4.045190 -4.724720 -1.679170 12.994200 -0.242716 4.980390 -86.844600 -7.474950 -67.034600 5.348090 -0.000007 -0.000001 -71.362700 17.289400 19.071900 24.328600 0.000019 0.000005 2.616370 2.628030 -44.902100 22.291600 -0.000001 0.000005 0.514679 5.616180 -12.361100 12.994500 -0.242716 -4.980390 90.109900 -0.326510 -71.399900 -5.348130 -0.000001 -0.000004 -49.174700 24.578600 -36.565600 -24.328900 0.000322 -0.000009 2.920130 1.224480 -67.280400 -22.291500 -0.000108 -0.000004 3.111270 5.595420 -11.072200 -2.192480 -6.469440 -0.000000 -179.917000 -9.097280 -36.641800 39.081100 -0.000007 -0.000012 0.084552 -0.212842 21.665700 40.985400 -0.000006 -0.000013 2.570860 -5.148170 -69.812500 11.754300 -0.000000 0.000003 -0.006180 -0.072468 -19.526300 -2.192510 6.469440 -0.000001 169.971000 8.338230 -171.220000 -39.081100 -0.002282 -0.040193 0.169295 -0.226530 36.235100 -40.985400 0.000008 0.000006 -3.420120 2.848970 -33.525200 -11.754300 -0.000006 -0.000006 -0.027345 -0.205029 -24.966600
0.000000 0.000000 0.000000 0.000000 0.000000 -0.000000 -3.094370 88.191400 356.966000 -87.752900 7.978390 170.024000 15.735700 0.000005 -0.000001 109.993000 80.226600 -111.169000 8.984550 -0.406207 -0.000000 10.724400 6.605640 -2.972990 16.377300 -0.000001 -0.000001 4.235420 -1.178900 2.310500 6.456720 -0.000001 -0.000000 -4.995630 -4.547150 -1.511330 12.994200 -0.242716 4.980390 -87.410300 -6.229420 -67.372000 5.348090 -0.000007 -0.000001 -69.443200 15.673300 15.468200 24.328600 0.000019 0.000005 1.546420 1.500120 -45.880700 22.291600 -0.000001 0.000005 0.759009 5.620090 -12.626300 12.994500 -0.242716 -4.980390 89.606300 1.177240 -71.508800 -5.348130 -0.000001 -0.000004 -50.416100 25.706300 -33.566700 -24.328900 0.000322 -0.000009 3.618250 1.747900 -64.258100 -22.291500 -0.000108 -0.000004 3.920860 5.604210 -11.596900 -2.192480 -6.469440 -0.000000 177.422000 -10.515600 -43.350500 39.081100 -0.000007 -0.000012 0.315067 -0.460693 34.368600 40.985400 -0.000006 -0.000013 3.289590 -7.381050 -59.495800 11.754300 -0.000000 0.000003 -0.013956 -0.131150 -21.926200 -2.192510 6.469440 -0.000001 169.829000 4.205280 -172.556000 -39.081100 -0.002282 -0.040193 0.203911 -0.200019 45.089900 -40.985400 0.000008 0.000006 -0.020940 -2.298010 -35.654900 -11.754300 -0.000006 -0.000006 -0.027171 -0.204193 -24.932000
